<svg width="438" height="81" viewBox="0 0 438 81" fill="none" xmlns="http://www.w3.org/2000/svg">
<path d="M122.387 64.9448C119.148 64.9448 116.111 63.6626 114.694 60.7607L100.859 32.0796C100.724 31.7422 100.32 31.5398 99.9821 31.5398C99.4422 31.5398 98.9023 31.9447 98.9023 32.7545V64H87.16V30.595C87.16 25.4661 88.7121 22.2943 91.4115 20.1348C93.4361 18.5152 96.1355 17.3679 99.3747 17.3679C105.178 17.3679 108.553 20.8097 110.915 25.871L121.24 48.276C121.51 48.9509 121.847 49.1533 122.387 49.1533C122.927 49.1533 123.264 48.9509 123.534 48.276L133.86 25.871C136.221 20.8097 139.596 17.3679 145.399 17.3679C148.639 17.3679 151.338 18.5152 153.363 20.1348C156.062 22.2943 157.614 25.4661 157.614 30.595V64H145.872V32.7545C145.872 31.9447 145.332 31.5398 144.792 31.5398C144.455 31.5398 144.05 31.7422 143.915 32.0796L130.08 60.7607C128.663 63.6626 125.626 64.9448 122.387 64.9448ZM198.355 64H188.772C180.606 64 174.6 61.1656 170.416 56.5767C166.772 52.5951 164.545 47.1963 164.545 41.1901C164.545 34.5766 167.379 28.5704 171.9 24.3864C175.95 20.6747 181.416 18.3802 188.772 18.3802H198.355C205.71 18.3802 211.177 20.6747 215.226 24.3864C219.747 28.5704 222.582 34.5766 222.582 41.1901C222.582 47.1963 220.355 52.5951 216.71 56.5767C212.526 61.1656 206.52 64 198.355 64ZM198.355 30.46H188.772C184.655 30.46 182.091 31.6073 180.134 33.4293C178.042 35.3864 176.759 38.2208 176.759 41.2576C176.759 44.0245 177.839 46.5889 179.594 48.4785C181.551 50.638 184.453 51.9877 188.772 51.9877H198.355C202.674 51.9877 205.575 50.638 207.532 48.4785C209.287 46.5889 210.367 44.0245 210.367 41.2576C210.367 38.2208 209.085 35.3864 206.993 33.4293C205.036 31.6073 202.471 30.46 198.355 30.46ZM262.576 64H252.993C244.827 64 238.821 61.1656 234.637 56.5767C230.993 52.5951 228.766 47.1963 228.766 41.1901C228.766 34.5766 231.6 28.5704 236.122 24.3864C240.171 20.6747 245.637 18.3802 252.993 18.3802H262.576C269.932 18.3802 275.398 20.6747 279.447 24.3864C283.969 28.5704 286.803 34.5766 286.803 41.1901C286.803 47.1963 284.576 52.5951 280.932 56.5767C276.748 61.1656 270.742 64 262.576 64ZM262.576 30.46H252.993C248.876 30.46 246.312 31.6073 244.355 33.4293C242.263 35.3864 240.981 38.2208 240.981 41.2576C240.981 44.0245 242.06 46.5889 243.815 48.4785C245.772 50.638 248.674 51.9877 252.993 51.9877H262.576C266.895 51.9877 269.797 50.638 271.754 48.4785C273.508 46.5889 274.588 44.0245 274.588 41.2576C274.588 38.2208 273.306 35.3864 271.214 33.4293C269.257 31.6073 266.692 30.46 262.576 30.46ZM350.619 18.3802V55.1595C350.619 62.0429 346.503 64.9448 342.049 64.9448C338.202 64.9448 335.3 63.865 333.141 61.3681L308.104 32.4171C307.766 32.0122 307.429 31.8097 307.024 31.8097C306.417 31.8097 305.877 32.2821 305.877 33.0919V64H293.865V28.0306C293.865 20.2698 298.319 17.3679 304.46 17.3679C308.779 17.3679 311.478 18.5152 314.313 21.8894L336.583 48.546C336.92 49.0184 337.325 49.0858 337.73 49.0858C338.27 49.0858 338.675 48.6809 338.675 47.8711V18.3802H350.619ZM358.816 18.3802H371.098V64H358.816V18.3802ZM377.251 18.3802H429.552V30.46H409.576V64H397.294V30.46H377.251V18.3802Z" fill="#E1E1E1"/>
<path d="M63.1308 14.8024C63.1375 14.7603 63.141 14.717 63.1406 14.6743C63.093 10.1847 58.2534 7.39301 54.3769 9.6447L7.98913 42.4623C4.27317 44.6207 6.24489 50.3577 10.4911 49.7422L33.1229 45.3251C36.6568 44.8128 40.0805 46.7841 41.4376 50.1017C41.4576 50.1506 41.4734 50.2014 41.4855 50.2529L46.6485 72.2403C46.6546 72.266 46.6627 72.2921 46.6727 72.3166C48.2829 76.2684 54.1321 75.134 54.1703 70.8642C54.1706 70.8357 54.1728 70.8065 54.1773 70.7784L63.1308 14.8024Z" fill="#DFFF18"/>
</svg>
